<svg xmlns="http://www.w3.org/2000/svg" width="512" height="512" viewBox="0 0 512 512" version="1.1">
	<path d="M 0 256.002 L 0 512.004 256.250 511.752 L 512.500 511.500 512.752 255.750 L 513.004 0 256.502 0 L 0 0 0 256.002 M 0.492 256.500 C 0.492 397.300, 0.608 454.751, 0.750 384.170 C 0.892 313.588, 0.892 198.388, 0.750 128.170 C 0.608 57.951, 0.492 115.700, 0.492 256.500 M 146.624 85.998 C 135.894 90.189, 130.326 96.720, 127.920 107.938 C 126.811 113.108, 126.843 113.243, 129.897 116.393 C 131.603 118.154, 133 120.136, 133 120.798 C 133 122.278, 133.563 122.284, 140.201 120.876 C 153.053 118.149, 159.828 112.052, 163.410 99.991 C 165.433 93.180, 165.440 87.583, 163.429 85.571 C 161.254 83.397, 152.730 83.613, 146.624 85.998 M 108.190 124.479 C 98.642 127.459, 92.414 134.473, 89.550 145.470 C 87.606 152.934, 87.607 154.994, 89.557 157.777 C 90.839 159.608, 92.067 160, 96.519 160 C 107.861 160, 118.918 153.267, 122.944 143.908 C 125.824 137.213, 126.907 128, 124.814 128 C 124.008 128, 122.292 126.875, 121 125.500 C 118.327 122.655, 114.908 122.382, 108.190 124.479 M 162.655 139.829 C 157.769 145.228, 164.612 152.453, 170.343 147.945 C 173.373 145.561, 173.679 143.414, 171.443 140.223 C 169.521 137.478, 164.967 137.274, 162.655 139.829 M 144.655 157.829 C 141.174 161.675, 143.969 168, 149.150 168 C 151.682 168, 155.160 163.109, 154.417 160.593 C 153.073 156.047, 147.656 154.513, 144.655 157.829 M 172.799 163.729 C 171.313 164.650, 169.328 166.833, 168.388 168.579 C 166.320 172.418, 166.452 174.051, 174.020 238 C 175.093 247.075, 175.978 254.838, 175.986 255.250 C 175.994 255.662, 176.874 256, 177.943 256 C 180.148 256, 183 259.536, 183 262.268 C 183 263.271, 181.803 265.288, 180.339 266.752 L 177.678 269.413 178.769 279.456 C 186.987 355.128, 195.293 426.092, 196.199 428.368 C 196.827 429.946, 198.726 432.082, 200.420 433.115 C 203.344 434.897, 206.570 434.993, 264 434.993 C 322.760 434.993, 324.594 434.935, 327.784 432.991 C 329.590 431.889, 331.305 430.370, 331.595 429.614 C 332.030 428.480, 332.964 428.559, 336.913 430.059 C 351.633 435.652, 376.319 436.540, 392 432.041 C 402.219 429.109, 414.140 423.202, 422.250 417.052 C 433.393 408.602, 435.906 412.416, 386.895 363.395 L 344.790 321.281 350.419 271.391 C 353.515 243.951, 357.154 212.050, 358.506 200.500 C 361.392 175.834, 361.511 171.889, 359.483 167.967 C 356.695 162.575, 353.900 161.922, 334.895 162.226 L 317.781 162.500 305.287 196.500 C 258.114 324.871, 227.659 406.823, 226.411 408.750 C 223.492 413.257, 215 410.599, 215 405.178 C 215 404.001, 248.288 313.538, 291.947 196.070 C 298.576 178.234, 304 163.272, 304 162.820 C 304 162.369, 275.087 162.012, 239.750 162.027 C 181.418 162.051, 175.251 162.208, 172.799 163.729 M 210.742 261.224 C 200.944 266.903, 200.702 281.187, 210.304 287.045 C 215.640 290.299, 219.400 290.513, 224.690 287.860 C 233.277 283.554, 236.089 275.946, 232.122 267.753 C 228.209 259.668, 218.527 256.712, 210.742 261.224 M 105 263.542 C 93.093 265.557, 92.293 265.794, 91.642 267.491 C 90.593 270.224, 92.120 271.960, 102.365 279.684 C 115.168 289.337, 124.428 293.835, 133.180 294.652 C 140.830 295.367, 148.996 294.373, 149.393 292.680 C 149.544 292.031, 150.892 287.729, 152.386 283.120 L 155.104 274.740 152.822 272.311 C 151.568 270.975, 147.181 268.222, 143.074 266.192 C 135.957 262.675, 135.090 262.492, 124.554 262.302 C 118.474 262.192, 109.675 262.750, 105 263.542 M 106.224 313.953 C 97.896 319.986, 93.279 335.262, 94.293 353.432 C 95.279 371.096, 98.937 378.172, 105.528 375.169 C 109.231 373.482, 109.469 371.823, 107.505 361.389 C 105.427 350.351, 105.927 342.168, 109.293 332.101 C 110.990 327.026, 112.233 325.040, 114.671 323.501 C 118.837 320.873, 120.389 317.606, 118.855 314.693 C 116.389 310.008, 112.022 309.752, 106.224 313.953 M 206.993 314.336 C 203.764 315.973, 202.595 318.251, 203.380 321.379 C 204.749 326.833, 213.106 327.433, 215.126 322.222 C 217.150 317.005, 211.855 311.871, 206.993 314.336 M 211 346 C 208.518 348.482, 208.456 351.106, 210.810 354.014 C 214.321 358.349, 222 355.518, 222 349.889 C 222 347.214, 218.453 344, 215.500 344 C 214.125 344, 212.100 344.900, 211 346" stroke="none" fill="black" fill-rule="evenodd"/>
</svg>